{
	"asset":{
		"generator":"Khronos glTF Blender I/O v5.2.40",
		"version":"2.0"
	},
	"scene":0,
	"scenes":[
		{
			"name":"Scene",
			"nodes":[
				3,
				7,
				13,
				14,
				15,
				16,
				17,
				18,
				19,
				20,
				21,
				22,
				23,
				24,
				25,
				26,
				27,
				28,
				33,
				34,
				35,
				36,
				37,
				38,
				39,
				40,
				41,
				42,
				43,
				44,
				45,
				46,
				47,
				69,
				70,
				71,
				72
			]
		}
	],
	"nodes":[
		{
			"mesh":0,
			"name":"table2.001",
			"translation":[
				-0.18162775039672852,
				0.11046957969665527,
				-0.021467924118041992
			]
		},
		{
			"mesh":1,
			"name":"table2.008",
			"translation":[
				0.0005481243133544922,
				0.16910064220428467,
				0
			]
		},
		{
			"mesh":0,
			"name":"table2.009",
			"translation":[
				0.3217461109161377,
				0.10978436470031738,
				-0.021467924118041992
			]
		},
		{
			"children":[
				0,
				1,
				2
			],
			"mesh":1,
			"name":"baseshelf2.001",
			"translation":[
				3.145400285720825,
				1.093397617340088,
				3.5883026123046875
			]
		},
		{
			"mesh":0,
			"name":"table2.010",
			"translation":[
				-0.18162791430950165,
				0.11046957969665527,
				-0.02146783098578453
			]
		},
		{
			"mesh":1,
			"name":"table2.011",
			"translation":[
				0.0005479650571942329,
				0.16910064220428467,
				0
			]
		},
		{
			"mesh":0,
			"name":"table2.012",
			"translation":[
				0.32174596190452576,
				0.10978436470031738,
				-0.02146781049668789
			]
		},
		{
			"children":[
				4,
				5,
				6
			],
			"mesh":1,
			"name":"baseshelf2.002",
			"rotation":[
				0,
				0.7071068286895752,
				0,
				0.7071068286895752
			],
			"translation":[
				3.643420457839966,
				1.092468500137329,
				3.1613752841949463
			]
		},
		{
			"mesh":2,
			"name":"Cube.001",
			"rotation":[
				0,
				1,
				0,
				0
			],
			"scale":[
				-1,
				-9.561988830566406,
				-1.5321382284164429
			],
			"translation":[
				0,
				-1.0891557931900024,
				0
			]
		},
		{
			"mesh":3,
			"name":"Cylinder",
			"rotation":[
				0,
				1,
				0,
				0
			],
			"scale":[
				-1.3231738805770874,
				-9.561988830566406,
				-2.02728533744812
			],
			"translation":[
				-0.8949419260025024,
				0.9412999153137207,
				-0.8410018682479858
			]
		},
		{
			"mesh":3,
			"name":"Cylinder.006",
			"rotation":[
				0,
				1,
				0,
				0
			],
			"scale":[
				-1.3231738805770874,
				-9.561988830566406,
				-2.02728533744812
			],
			"translation":[
				-0.9068998098373413,
				0.9412999153137207,
				0.8458030223846436
			]
		},
		{
			"mesh":3,
			"name":"Cylinder.007",
			"rotation":[
				0,
				1,
				0,
				0
			],
			"scale":[
				-1.3231738805770874,
				-9.561988830566406,
				-2.02728533744812
			],
			"translation":[
				0.9144068956375122,
				0.9412999153137207,
				0.8672831058502197
			]
		},
		{
			"mesh":3,
			"name":"Cylinder.008",
			"rotation":[
				0,
				1,
				0,
				0
			],
			"scale":[
				-1.3231738805770874,
				-9.561988830566406,
				-2.02728533744812
			],
			"translation":[
				0.9028613567352295,
				0.9412999153137207,
				-0.86564040184021
			]
		},
		{
			"children":[
				8,
				9,
				10,
				11,
				12
			],
			"mesh":4,
			"name":"Bed",
			"rotation":[
				0,
				1,
				0,
				0
			],
			"scale":[
				-1,
				-0.10458076000213623,
				-0.6526826620101929
			],
			"translation":[
				1.0046569108963013,
				0.14818888902664185,
				1.2226887941360474
			]
		},
		{
			"mesh":5,
			"name":"Cube",
			"scale":[
				1.5,
				0.6500000357627869,
				0.6000000238418579
			],
			"translation":[
				1.8175287246704102,
				1.6027100086212158,
				3.56000018119812
			]
		},
		{
			"mesh":6,
			"name":"Cube.002",
			"rotation":[
				-0.07105551660060883,
				0,
				0,
				0.9974724650382996
			],
			"scale":[
				1.5,
				0.6500000357627869,
				0.6000000238418579
			],
			"translation":[
				1.871705412864685,
				1.5339758396148682,
				3.4965531826019287
			]
		},
		{
			"mesh":7,
			"name":"Cube.003",
			"scale":[
				0.09109574556350708,
				2,
				3.7799994945526123
			],
			"translation":[
				0.009550878778100014,
				1.031735897064209,
				1.240085244178772
			]
		},
		{
			"mesh":8,
			"name":"Cube.004",
			"scale":[
				0.09109574556350708,
				2,
				3.7799994945526123
			],
			"translation":[
				0.009550878778100014,
				1.031735897064209,
				1.240085244178772
			]
		},
		{
			"mesh":9,
			"name":"Cube.005",
			"scale":[
				0.09109574556350708,
				2,
				3.7799994945526123
			],
			"translation":[
				0.009550878778100014,
				1.031735897064209,
				1.240085244178772
			]
		},
		{
			"mesh":10,
			"name":"Cube.006",
			"translation":[
				0.7270767688751221,
				0.9854601621627808,
				-0.02489384636282921
			]
		},
		{
			"mesh":10,
			"name":"Cube.007",
			"translation":[
				1.5202230215072632,
				0.9854601621627808,
				-0.05782270431518555
			]
		},
		{
			"mesh":10,
			"name":"Cube.008",
			"translation":[
				2.3147926330566406,
				0.9854601621627808,
				-0.02489384636282921
			]
		},
		{
			"mesh":10,
			"name":"Cube.009",
			"translation":[
				3.1079390048980713,
				0.9854601621627808,
				-0.05782270431518555
			]
		},
		{
			"mesh":11,
			"name":"Cylinder.009",
			"scale":[
				0.699999988079071,
				1,
				0.699999988079071
			],
			"translation":[
				1.3485134840011597,
				0.7514356970787048,
				3.303873300552368
			]
		},
		{
			"mesh":11,
			"name":"Cylinder.010",
			"scale":[
				0.699999988079071,
				1,
				0.699999988079071
			],
			"translation":[
				1.169408917427063,
				0.6165431141853333,
				3.5249273777008057
			]
		},
		{
			"mesh":11,
			"name":"Cylinder.011",
			"scale":[
				0.699999988079071,
				1,
				0.699999988079071
			],
			"translation":[
				0.4716031551361084,
				0.48857054114341736,
				3.576543092727661
			]
		},
		{
			"mesh":12,
			"name":"doorframe"
		},
		{
			"mesh":13,
			"name":"doorframe.001",
			"translation":[
				-0.00010097611811943352,
				1.3121976852416992,
				2.784642457962036
			]
		},
		{
			"mesh":14,
			"name":"doorframe.002"
		},
		{
			"mesh":15,
			"name":"Handle2",
			"translation":[
				-0.004017353057861328,
				-0.5961669087409973,
				0
			]
		},
		{
			"children":[
				29
			],
			"mesh":16,
			"name":"Drawer1",
			"translation":[
				-0.16313385963439941,
				0.3021446466445923,
				0.37023067474365234
			]
		},
		{
			"mesh":15,
			"name":"Handle1"
		},
		{
			"children":[
				31
			],
			"mesh":17,
			"name":"Drawer2",
			"translation":[
				-0.16313385963439941,
				0.3021446466445923,
				0.3870096206665039
			]
		},
		{
			"children":[
				30,
				32
			],
			"mesh":18,
			"name":"DrawerComplex1",
			"scale":[
				0.23132801055908203,
				0.23132801055908203,
				0.23132801055908203
			],
			"translation":[
				0.8207757472991943,
				0.16048836708068848,
				3.231445550918579
			]
		},
		{
			"mesh":19,
			"name":"house"
		},
		{
			"mesh":20,
			"name":"house.001"
		},
		{
			"mesh":21,
			"name":"house.002"
		},
		{
			"mesh":22,
			"name":"house.003"
		},
		{
			"mesh":23,
			"name":"house.004"
		},
		{
			"name":"house.005"
		},
		{
			"mesh":24,
			"name":"house.006"
		},
		{
			"mesh":25,
			"name":"house.007"
		},
		{
			"mesh":26,
			"name":"house.008"
		},
		{
			"mesh":27,
			"name":"house.009"
		},
		{
			"mesh":28,
			"name":"house.010"
		},
		{
			"mesh":29,
			"name":"house.011"
		},
		{
			"mesh":30,
			"name":"Plane",
			"rotation":[
				0.7071068286895752,
				0,
				0,
				0.7071068286895752
			],
			"translation":[
				1.5599102973937988,
				0.895195484161377,
				3.6368985176086426
			]
		},
		{
			"mesh":31,
			"name":"Plane.005",
			"scale":[
				30,
				1,
				90
			],
			"translation":[
				3.562361478805542,
				0,
				0.47027114033699036
			]
		},
		{
			"mesh":0,
			"name":"table2.002",
			"translation":[
				0.32174599170684814,
				0.10978436470031738,
				-0.021467924118041992
			]
		},
		{
			"mesh":0,
			"name":"table2.005",
			"translation":[
				-0.18162775039672852,
				0.1104695200920105,
				-0.021467924118041992
			]
		},
		{
			"mesh":1,
			"name":"table2.006",
			"translation":[
				0.0005481243133544922,
				0.16910064220428467,
				0
			]
		},
		{
			"children":[
				48,
				49,
				50
			],
			"mesh":1,
			"name":"baseshelf1"
		},
		{
			"mesh":0,
			"name":"table2.003",
			"translation":[
				-0.18162775039672852,
				0.1104695200920105,
				-0.021467924118041992
			]
		},
		{
			"mesh":32,
			"name":"Camera.Hold.Back",
			"rotation":[
				0.7400331497192383,
				0,
				0,
				0.6725704073905945
			],
			"scale":[
				0.4999999403953552,
				0.5,
				0.5
			],
			"translation":[
				-0.00013438184396363795,
				0.003770897863432765,
				-0.004531525075435638
			]
		},
		{
			"children":[
				53
			],
			"mesh":33,
			"name":"Camera.Hold.Chest",
			"rotation":[
				-0.033731311559677124,
				-0.033731430768966675,
				0.706301748752594,
				0.7063018083572388
			],
			"scale":[
				1.8395795822143555,
				3.9217607975006104,
				3.9217605590820312
			],
			"translation":[
				-0.0014273980632424355,
				1.1311329217278399e-05,
				-0.02038704603910446
			]
		},
		{
			"children":[
				54
			],
			"mesh":34,
			"name":"Cylinder.005",
			"rotation":[
				0.15501768887043,
				0.15501777827739716,
				-0.6899054050445557,
				0.6899054646492004
			],
			"scale":[
				0.509975016117096,
				1.087204933166504,
				0.5099750757217407
			],
			"translation":[
				0.00036983302561566234,
				0.0019966010004281998,
				0.007363110780715942
			]
		},
		{
			"children":[
				55
			],
			"mesh":35,
			"name":"camera",
			"rotation":[
				-0.844923198223114,
				0,
				0,
				0.5348876714706421
			],
			"translation":[
				-0.0016688331961631775,
				0.012842764146625996,
				-0.11931363493204117
			]
		},
		{
			"mesh":36,
			"name":"headphone hanger",
			"rotation":[
				-0.7071068286895752,
				0,
				0,
				0.7071068286895752
			],
			"scale":[
				1.4189643859863281,
				1.4189643859863281,
				1.4189643859863281
			],
			"translation":[
				0.15883606672286987,
				0.0028769602067768574,
				-0.12310866266489029
			]
		},
		{
			"mesh":37,
			"name":"Monitor.Screen"
		},
		{
			"children":[
				56,
				57,
				58
			],
			"mesh":38,
			"name":"Monitor.Frame",
			"rotation":[
				0.7071068286895752,
				0,
				0,
				0.7071068286895752
			],
			"scale":[
				0.5,
				0.5,
				0.5
			],
			"translation":[
				-0.00019523873925209045,
				0.08239871263504028,
				-0.027877382934093475
			]
		},
		{
			"children":[
				59
			],
			"mesh":39,
			"name":"monitor",
			"rotation":[
				0,
				0.016023417934775352,
				0,
				0.9998716115951538
			],
			"scale":[
				2,
				2,
				2
			],
			"translation":[
				0.07319152355194092,
				0.0384371280670166,
				0.06569743156433105
			]
		},
		{
			"children":[
				60
			],
			"mesh":1,
			"name":"table2.004",
			"translation":[
				0.0005481243133544922,
				0.16910064220428467,
				0
			]
		},
		{
			"mesh":0,
			"name":"table2.007",
			"translation":[
				0.3217458724975586,
				0.10978436470031738,
				-0.021467924118041992
			]
		},
		{
			"children":[
				52,
				61,
				62
			],
			"mesh":1,
			"name":"baseshelf2",
			"translation":[
				0.001988530158996582,
				0,
				0.1942741870880127
			]
		},
		{
			"mesh":40,
			"name":"Cylinder.001",
			"scale":[
				1,
				0.7620753645896912,
				1
			],
			"translation":[
				-0.45527708530426025,
				-0.06820166110992432,
				-0.24694561958312988
			]
		},
		{
			"mesh":40,
			"name":"Cylinder.002",
			"scale":[
				1,
				0.7620753645896912,
				1
			],
			"translation":[
				-0.45527708530426025,
				-0.06820166110992432,
				0.24130868911743164
			]
		},
		{
			"mesh":40,
			"name":"Cylinder.003",
			"scale":[
				1,
				0.7620753645896912,
				1
			],
			"translation":[
				0.4651840925216675,
				-0.06847572326660156,
				0.24130868911743164
			]
		},
		{
			"mesh":40,
			"name":"Cylinder.004",
			"scale":[
				1,
				0.7620753645896912,
				1
			],
			"translation":[
				0.4651840925216675,
				-0.06847572326660156,
				-0.24694561958312988
			]
		},
		{
			"children":[
				51,
				63,
				64,
				65,
				66,
				67
			],
			"mesh":41,
			"name":"table2",
			"translation":[
				0.024665236473083496,
				0.34036579728126526,
				0.0551762580871582
			]
		},
		{
			"children":[
				68
			],
			"mesh":42,
			"name":"table1",
			"translation":[
				1.7233991622924805,
				0.3473187983036041,
				3.3048272132873535
			]
		},
		{
			"mesh":42,
			"name":"table1.001",
			"rotation":[
				0,
				0.7071068286895752,
				0,
				0.7071068286895752
			],
			"translation":[
				3.3707656860351562,
				0.3473187983036041,
				3.000577449798584
			]
		},
		{
			"mesh":1,
			"name":"table2.013",
			"rotation":[
				1,
				0,
				0,
				0
			],
			"scale":[
				-0.5933969616889954,
				-1,
				-1
			],
			"translation":[
				0.534773051738739,
				0.40015318989753723,
				3.5883026123046875
			]
		},
		{
			"mesh":43,
			"name":"trashbin",
			"scale":[
				1,
				3.450000286102295,
				1
			],
			"translation":[
				-0.681122899055481,
				0.1799553483724594,
				3.9046685695648193
			]
		}
	],
	"materials":[
		{
			"doubleSided":true,
			"emissiveFactor":[
				1,
				1,
				1
			],
			"name":"Table.008",
			"pbrMetallicRoughness":{
				"baseColorFactor":[
					0,
					0,
					0,
					1
				]
			}
		},
		{
			"doubleSided":true,
			"emissiveFactor":[
				1,
				1,
				1
			],
			"name":"Table.006",
			"pbrMetallicRoughness":{
				"baseColorFactor":[
					0,
					0,
					0,
					1
				]
			}
		},
		{
			"doubleSided":true,
			"emissiveFactor":[
				1,
				1,
				1
			],
			"name":"Table.007",
			"pbrMetallicRoughness":{
				"baseColorFactor":[
					0,
					0,
					0,
					1
				]
			}
		},
		{
			"doubleSided":true,
			"emissiveFactor":[
				1,
				1,
				1
			],
			"name":"Table.003",
			"pbrMetallicRoughness":{
				"baseColorFactor":[
					0,
					0,
					0,
					1
				]
			}
		},
		{
			"doubleSided":true,
			"emissiveFactor":[
				1,
				1,
				1
			],
			"name":"Material.001",
			"pbrMetallicRoughness":{
				"baseColorFactor":[
					0,
					0,
					0,
					1
				]
			}
		},
		{
			"doubleSided":true,
			"emissiveFactor":[
				1,
				1,
				1
			],
			"name":"AC.001",
			"pbrMetallicRoughness":{
				"baseColorFactor":[
					0,
					0,
					0,
					1
				]
			}
		},
		{
			"doubleSided":true,
			"emissiveFactor":[
				1,
				1,
				1
			],
			"name":"Table.001",
			"pbrMetallicRoughness":{
				"baseColorFactor":[
					0,
					0,
					0,
					1
				]
			}
		},
		{
			"doubleSided":true,
			"emissiveFactor":[
				1,
				1,
				1
			],
			"name":"Table.002",
			"pbrMetallicRoughness":{
				"baseColorFactor":[
					0,
					0,
					0,
					1
				]
			}
		},
		{
			"doubleSided":true,
			"emissiveFactor":[
				1,
				1,
				1
			],
			"name":"Door.Frame.1",
			"pbrMetallicRoughness":{
				"baseColorFactor":[
					0,
					0,
					0,
					1
				]
			}
		},
		{
			"doubleSided":true,
			"emissiveFactor":[
				1,
				1,
				1
			],
			"name":"Door.Frame.3",
			"pbrMetallicRoughness":{
				"baseColorFactor":[
					0,
					0,
					0,
					1
				]
			}
		},
		{
			"doubleSided":true,
			"emissiveFactor":[
				1,
				1,
				1
			],
			"name":"Door.Frame.2",
			"pbrMetallicRoughness":{
				"baseColorFactor":[
					0,
					0,
					0,
					1
				]
			}
		},
		{
			"doubleSided":true,
			"emissiveFactor":[
				1,
				1,
				1
			],
			"name":"AC.002",
			"pbrMetallicRoughness":{
				"baseColorFactor":[
					0,
					0,
					0,
					1
				]
			}
		},
		{
			"doubleSided":true,
			"emissiveFactor":[
				1,
				1,
				1
			],
			"name":"Upper.Drawer.001",
			"pbrMetallicRoughness":{
				"baseColorFactor":[
					0,
					0,
					0,
					1
				]
			}
		},
		{
			"doubleSided":true,
			"emissiveFactor":[
				1,
				1,
				1
			],
			"name":"Drawer.009",
			"pbrMetallicRoughness":{
				"baseColorFactor":[
					0,
					0,
					0,
					1
				]
			}
		},
		{
			"doubleSided":true,
			"emissiveFactor":[
				1,
				1,
				1
			],
			"name":"Drawer.001",
			"pbrMetallicRoughness":{
				"baseColorFactor":[
					0,
					0,
					0,
					1
				]
			}
		},
		{
			"doubleSided":true,
			"emissiveFactor":[
				1,
				1,
				1
			],
			"name":"Drawer.002",
			"pbrMetallicRoughness":{
				"baseColorFactor":[
					0,
					0,
					0,
					1
				]
			}
		},
		{
			"doubleSided":true,
			"emissiveFactor":[
				1,
				1,
				1
			],
			"name":"White.Wall",
			"pbrMetallicRoughness":{
				"baseColorFactor":[
					0,
					0,
					0,
					1
				]
			}
		},
		{
			"doubleSided":true,
			"emissiveFactor":[
				1,
				1,
				1
			],
			"name":"Blue.Wall",
			"pbrMetallicRoughness":{
				"baseColorFactor":[
					0,
					0,
					0,
					1
				]
			}
		},
		{
			"doubleSided":true,
			"emissiveFactor":[
				1,
				1,
				1
			],
			"name":"Floor",
			"pbrMetallicRoughness":{
				"baseColorFactor":[
					0,
					0,
					0,
					1
				]
			}
		},
		{
			"doubleSided":true,
			"emissiveFactor":[
				1,
				1,
				1
			],
			"name":"Closet.Frame.002",
			"pbrMetallicRoughness":{
				"baseColorFactor":[
					0,
					0,
					0,
					1
				]
			}
		},
		{
			"doubleSided":true,
			"emissiveFactor":[
				1,
				1,
				1
			],
			"name":"Closet.Frame.003",
			"pbrMetallicRoughness":{
				"baseColorFactor":[
					0,
					0,
					0,
					1
				]
			}
		},
		{
			"doubleSided":true,
			"emissiveFactor":[
				1,
				1,
				1
			],
			"name":"Closet.Frame.1",
			"pbrMetallicRoughness":{
				"baseColorFactor":[
					0,
					0,
					0,
					1
				]
			}
		},
		{
			"doubleSided":true,
			"emissiveFactor":[
				1,
				1,
				1
			],
			"name":"Green.Wall",
			"pbrMetallicRoughness":{
				"baseColorFactor":[
					0,
					0,
					0,
					1
				]
			}
		},
		{
			"doubleSided":true,
			"emissiveFactor":[
				1,
				1,
				1
			],
			"name":"Green.Wall.001",
			"pbrMetallicRoughness":{
				"baseColorFactor":[
					0,
					0,
					0,
					1
				]
			}
		},
		{
			"doubleSided":true,
			"emissiveFactor":[
				1,
				1,
				1
			],
			"name":"Bookshelf.001",
			"pbrMetallicRoughness":{
				"baseColorFactor":[
					0,
					0,
					0,
					1
				]
			}
		},
		{
			"doubleSided":true,
			"emissiveFactor":[
				1,
				1,
				1
			],
			"name":"Bookshelf.002",
			"pbrMetallicRoughness":{
				"baseColorFactor":[
					0,
					0,
					0,
					1
				]
			}
		},
		{
			"doubleSided":true,
			"emissiveFactor":[
				1,
				1,
				1
			],
			"name":"Bookshelf.003",
			"pbrMetallicRoughness":{
				"baseColorFactor":[
					0,
					0,
					0,
					1
				]
			}
		},
		{
			"doubleSided":true,
			"emissiveFactor":[
				1,
				1,
				1
			],
			"name":"Camera.Hold",
			"pbrMetallicRoughness":{
				"baseColorFactor":[
					0,
					0,
					0,
					1
				]
			}
		},
		{
			"doubleSided":true,
			"emissiveFactor":[
				1,
				1,
				1
			],
			"name":"Monitor.Frame.002",
			"pbrMetallicRoughness":{
				"baseColorFactor":[
					0,
					0,
					0,
					1
				]
			}
		},
		{
			"doubleSided":true,
			"emissiveFactor":[
				1,
				1,
				1
			],
			"name":"Monitor.Frame.001",
			"pbrMetallicRoughness":{
				"baseColorFactor":[
					0,
					0,
					0,
					1
				]
			}
		},
		{
			"doubleSided":true,
			"emissiveFactor":[
				1,
				1,
				1
			],
			"name":"Table.004",
			"pbrMetallicRoughness":{
				"baseColorFactor":[
					0,
					0,
					0,
					1
				]
			}
		}
	],
	"meshes":[
		{
			"name":"Plane.008",
			"primitives":[
				{
					"attributes":{
						"POSITION":0,
						"NORMAL":1,
						"TEXCOORD_0":2
					},
					"indices":3,
					"material":0
				}
			]
		},
		{
			"name":"Plane.007",
			"primitives":[
				{
					"attributes":{
						"POSITION":4,
						"NORMAL":5,
						"TEXCOORD_0":6
					},
					"indices":7,
					"material":1
				},
				{
					"attributes":{
						"POSITION":8,
						"NORMAL":9,
						"TEXCOORD_0":10
					},
					"indices":11,
					"material":2
				},
				{
					"attributes":{
						"POSITION":12,
						"NORMAL":13,
						"TEXCOORD_0":14
					},
					"indices":15,
					"material":3
				}
			]
		},
		{
			"name":"Cube.003",
			"primitives":[
				{
					"attributes":{
						"POSITION":16,
						"NORMAL":17,
						"TEXCOORD_0":18
					},
					"indices":19,
					"material":4
				}
			]
		},
		{
			"name":"Cylinder.007",
			"primitives":[
				{
					"attributes":{
						"POSITION":20,
						"NORMAL":21,
						"TEXCOORD_0":22
					},
					"indices":23
				}
			]
		},
		{
			"name":"Cube.001",
			"primitives":[
				{
					"attributes":{
						"POSITION":24,
						"NORMAL":25,
						"TEXCOORD_0":26
					},
					"indices":27
				}
			]
		},
		{
			"name":"Cube.009",
			"primitives":[
				{
					"attributes":{
						"POSITION":28,
						"NORMAL":29,
						"TEXCOORD_0":30
					},
					"indices":31,
					"material":5
				}
			]
		},
		{
			"name":"Cube.010",
			"primitives":[
				{
					"attributes":{
						"POSITION":32,
						"NORMAL":33,
						"TEXCOORD_0":34
					},
					"indices":35,
					"material":5
				}
			]
		},
		{
			"name":"Cube.011",
			"primitives":[
				{
					"attributes":{
						"POSITION":36,
						"NORMAL":37,
						"TEXCOORD_0":38
					},
					"indices":39,
					"material":6
				}
			]
		},
		{
			"name":"Cube.012",
			"primitives":[
				{
					"attributes":{
						"POSITION":40,
						"NORMAL":41,
						"TEXCOORD_0":42
					},
					"indices":43
				}
			]
		},
		{
			"name":"Cube.013",
			"primitives":[
				{
					"attributes":{
						"POSITION":44,
						"NORMAL":45,
						"TEXCOORD_0":46
					},
					"indices":47,
					"material":7
				}
			]
		},
		{
			"name":"Cube.014",
			"primitives":[
				{
					"attributes":{
						"POSITION":48,
						"NORMAL":49,
						"TEXCOORD_0":50
					},
					"indices":51,
					"material":8
				}
			]
		},
		{
			"name":"Cylinder.009",
			"primitives":[
				{
					"attributes":{
						"POSITION":52,
						"NORMAL":53,
						"TEXCOORD_0":54
					},
					"indices":55
				}
			]
		},
		{
			"name":"Plane.017",
			"primitives":[
				{
					"attributes":{
						"POSITION":56,
						"NORMAL":57,
						"TEXCOORD_0":58
					},
					"indices":59,
					"material":9
				}
			]
		},
		{
			"name":"Plane.020",
			"primitives":[
				{
					"attributes":{
						"POSITION":60,
						"NORMAL":61,
						"TEXCOORD_0":62
					},
					"indices":63,
					"material":10
				}
			]
		},
		{
			"name":"Plane.021",
			"primitives":[
				{
					"attributes":{
						"POSITION":64,
						"NORMAL":65,
						"TEXCOORD_0":66
					},
					"indices":67,
					"material":8
				}
			]
		},
		{
			"name":"Cube.007",
			"primitives":[
				{
					"attributes":{
						"POSITION":68,
						"NORMAL":69,
						"TEXCOORD_0":70
					},
					"indices":71,
					"material":11
				}
			]
		},
		{
			"name":"Cube.005",
			"primitives":[
				{
					"attributes":{
						"POSITION":72,
						"NORMAL":73,
						"TEXCOORD_0":74
					},
					"indices":75,
					"material":12
				}
			]
		},
		{
			"name":"Cube.006",
			"primitives":[
				{
					"attributes":{
						"POSITION":76,
						"NORMAL":77,
						"TEXCOORD_0":78
					},
					"indices":79,
					"material":12
				}
			]
		},
		{
			"name":"Cube.004",
			"primitives":[
				{
					"attributes":{
						"POSITION":80,
						"NORMAL":81,
						"TEXCOORD_0":82
					},
					"indices":83,
					"material":13
				},
				{
					"attributes":{
						"POSITION":84,
						"NORMAL":85,
						"TEXCOORD_0":86
					},
					"indices":87,
					"material":14
				},
				{
					"attributes":{
						"POSITION":88,
						"NORMAL":89,
						"TEXCOORD_0":90
					},
					"indices":91,
					"material":15
				}
			]
		},
		{
			"name":"Plane.002",
			"primitives":[
				{
					"attributes":{
						"POSITION":92,
						"NORMAL":93,
						"TEXCOORD_0":94
					},
					"indices":95,
					"material":16
				}
			]
		},
		{
			"name":"Plane.001",
			"primitives":[
				{
					"attributes":{
						"POSITION":96,
						"NORMAL":97,
						"TEXCOORD_0":98
					},
					"indices":99,
					"material":17
				}
			]
		},
		{
			"name":"Plane.003",
			"primitives":[
				{
					"attributes":{
						"POSITION":100,
						"NORMAL":101,
						"TEXCOORD_0":102
					},
					"indices":103,
					"material":18
				}
			]
		},
		{
			"name":"Plane.006",
			"primitives":[
				{
					"attributes":{
						"POSITION":104,
						"NORMAL":105,
						"TEXCOORD_0":106
					},
					"indices":107,
					"material":16
				}
			]
		},
		{
			"name":"Plane.009",
			"primitives":[
				{
					"attributes":{
						"POSITION":108,
						"NORMAL":109,
						"TEXCOORD_0":110
					},
					"indices":111
				}
			]
		},
		{
			"name":"Plane.022",
			"primitives":[
				{
					"attributes":{
						"POSITION":112,
						"NORMAL":113,
						"TEXCOORD_0":114
					},
					"indices":115,
					"material":19
				}
			]
		},
		{
			"name":"Plane.023",
			"primitives":[
				{
					"attributes":{
						"POSITION":116,
						"NORMAL":117,
						"TEXCOORD_0":118
					},
					"indices":119,
					"material":8
				}
			]
		},
		{
			"name":"Plane.024",
			"primitives":[
				{
					"attributes":{
						"POSITION":120,
						"NORMAL":121,
						"TEXCOORD_0":122
					},
					"indices":123,
					"material":20
				}
			]
		},
		{
			"name":"Plane.025",
			"primitives":[
				{
					"attributes":{
						"POSITION":124,
						"NORMAL":125,
						"TEXCOORD_0":126
					},
					"indices":127,
					"material":21
				}
			]
		},
		{
			"name":"Plane.026",
			"primitives":[
				{
					"attributes":{
						"POSITION":128,
						"NORMAL":129,
						"TEXCOORD_0":130
					},
					"indices":131,
					"material":22
				}
			]
		},
		{
			"name":"Plane.027",
			"primitives":[
				{
					"attributes":{
						"POSITION":132,
						"NORMAL":133,
						"TEXCOORD_0":134
					},
					"indices":135,
					"material":23
				}
			]
		},
		{
			"name":"Plane.016",
			"primitives":[
				{
					"attributes":{
						"POSITION":136,
						"NORMAL":137,
						"TEXCOORD_0":138
					},
					"indices":139
				}
			]
		},
		{
			"name":"Plane.018",
			"primitives":[
				{
					"attributes":{
						"POSITION":140,
						"NORMAL":141,
						"TEXCOORD_0":142
					},
					"indices":143,
					"material":24
				},
				{
					"attributes":{
						"POSITION":144,
						"NORMAL":145,
						"TEXCOORD_0":146
					},
					"indices":147,
					"material":25
				},
				{
					"attributes":{
						"POSITION":148,
						"NORMAL":149,
						"TEXCOORD_0":150
					},
					"indices":151,
					"material":26
				}
			]
		},
		{
			"name":"Plane.014",
			"primitives":[
				{
					"attributes":{
						"POSITION":152,
						"NORMAL":153,
						"TEXCOORD_0":154
					},
					"indices":155,
					"material":27
				}
			]
		},
		{
			"name":"Plane.012",
			"primitives":[
				{
					"attributes":{
						"POSITION":156,
						"NORMAL":157,
						"TEXCOORD_0":158
					},
					"indices":159,
					"material":27
				}
			]
		},
		{
			"name":"Cylinder.006",
			"primitives":[
				{
					"attributes":{
						"POSITION":160,
						"NORMAL":161,
						"TEXCOORD_0":162
					},
					"indices":163
				}
			]
		},
		{
			"name":"Plane.013",
			"primitives":[
				{
					"attributes":{
						"POSITION":164,
						"NORMAL":165,
						"TEXCOORD_0":166
					},
					"indices":167,
					"material":27
				}
			]
		},
		{
			"name":"Plane.015",
			"primitives":[
				{
					"attributes":{
						"POSITION":168,
						"NORMAL":169,
						"TEXCOORD_0":170
					},
					"indices":171
				}
			]
		},
		{
			"name":"Plane.028",
			"primitives":[
				{
					"attributes":{
						"POSITION":172,
						"NORMAL":173,
						"TEXCOORD_0":174
					},
					"indices":175,
					"material":28
				}
			]
		},
		{
			"name":"Plane.011",
			"primitives":[
				{
					"attributes":{
						"POSITION":176,
						"NORMAL":177,
						"TEXCOORD_0":178
					},
					"indices":179,
					"material":28
				}
			]
		},
		{
			"name":"Plane.010",
			"primitives":[
				{
					"attributes":{
						"POSITION":180,
						"NORMAL":181,
						"TEXCOORD_0":182
					},
					"indices":183,
					"material":29
				}
			]
		},
		{
			"name":"Cylinder.003",
			"primitives":[
				{
					"attributes":{
						"POSITION":184,
						"NORMAL":185,
						"TEXCOORD_0":186
					},
					"indices":187,
					"material":11
				}
			]
		},
		{
			"name":"Plane.005",
			"primitives":[
				{
					"attributes":{
						"POSITION":188,
						"NORMAL":189,
						"TEXCOORD_0":190
					},
					"indices":191,
					"material":30
				},
				{
					"attributes":{
						"POSITION":192,
						"NORMAL":193,
						"TEXCOORD_0":194
					},
					"indices":195,
					"material":3
				}
			]
		},
		{
			"name":"Plane.004",
			"primitives":[
				{
					"attributes":{
						"POSITION":196,
						"NORMAL":197,
						"TEXCOORD_0":198
					},
					"indices":199,
					"material":6
				},
				{
					"attributes":{
						"POSITION":200,
						"NORMAL":201,
						"TEXCOORD_0":202
					},
					"indices":203,
					"material":7
				},
				{
					"attributes":{
						"POSITION":204,
						"NORMAL":205,
						"TEXCOORD_0":206
					},
					"indices":207,
					"material":3
				}
			]
		},
		{
			"name":"Cylinder.008",
			"primitives":[
				{
					"attributes":{
						"POSITION":208,
						"NORMAL":209,
						"TEXCOORD_0":210
					},
					"indices":211
				}
			]
		}
	],
	"accessors":[
		{
			"bufferView":0,
			"componentType":5126,
			"count":23,
			"max":[
				0.01579148694872856,
				0.07468738406896591,
				0.09669135510921478
			],
			"min":[
				-0.006567835807800293,
				-0.07287071645259857,
				-0.09335461258888245
			],
			"type":"VEC3"
		},
		{
			"bufferView":1,
			"componentType":5126,
			"count":23,
			"type":"VEC3"
		},
		{
			"bufferView":2,
			"componentType":5126,
			"count":23,
			"type":"VEC2"
		},
		{
			"bufferView":3,
			"componentType":5123,
			"count":39,
			"type":"SCALAR"
		},
		{
			"bufferView":4,
			"componentType":5126,
			"count":18,
			"max":[
				0.3380630612373352,
				0.038417279720306396,
				0.07657977938652039
			],
			"min":[
				-0.18903271853923798,
				0.013751089572906494,
				-0.11680293083190918
			],
			"type":"VEC3"
		},
		{
			"bufferView":5,
			"componentType":5126,
			"count":18,
			"type":"VEC3"
		},
		{
			"bufferView":6,
			"componentType":5126,
			"count":18,
			"type":"VEC2"
		},
		{
			"bufferView":7,
			"componentType":5123,
			"count":30,
			"type":"SCALAR"
		},
		{
			"bufferView":8,
			"componentType":5126,
			"count":12,
			"max":[
				0.3380630612373352,
				0.038417279720306396,
				0.07657977938652039
			],
			"min":[
				-0.18903271853923798,
				0.038417279720306396,
				-0.11680293083190918
			],
			"type":"VEC3"
		},
		{
			"bufferView":9,
			"componentType":5126,
			"count":12,
			"type":"VEC3"
		},
		{
			"bufferView":10,
			"componentType":5126,
			"count":12,
			"type":"VEC2"
		},
		{
			"bufferView":11,
			"componentType":5123,
			"count":42,
			"type":"SCALAR"
		},
		{
			"bufferView":12,
			"componentType":5126,
			"count":6,
			"max":[
				0.3380630314350128,
				0.038417279720306396,
				-0.11680293083190918
			],
			"min":[
				-0.1890326887369156,
				0.013751089572906494,
				-0.11680293083190918
			],
			"type":"VEC3"
		},
		{
			"bufferView":13,
			"componentType":5126,
			"count":6,
			"type":"VEC3"
		},
		{
			"bufferView":14,
			"componentType":5126,
			"count":6,
			"type":"VEC2"
		},
		{
			"bufferView":15,
			"componentType":5123,
			"count":12,
			"type":"SCALAR"
		},
		{
			"bufferView":16,
			"componentType":5126,
			"count":176,
			"max":[
				1,
				0.011526943184435368,
				0.6526826620101929
			],
			"min":[
				-1,
				-0.10458076000213623,
				-0.6526826620101929
			],
			"type":"VEC3"
		},
		{
			"bufferView":17,
			"componentType":5126,
			"count":176,
			"type":"VEC3"
		},
		{
			"bufferView":18,
			"componentType":5126,
			"count":176,
			"type":"VEC2"
		},
		{
			"bufferView":19,
			"componentType":5123,
			"count":756,
			"type":"SCALAR"
		},
		{
			"bufferView":20,
			"componentType":5126,
			"count":130,
			"max":[
				0.03999999910593033,
				-0.000485934317111969,
				0.03999999910593033
			],
			"min":[
				-0.03999999910593033,
				-0.04999999701976776,
				-0.03999999910593033
			],
			"type":"VEC3"
		},
		{
			"bufferView":21,
			"componentType":5126,
			"count":130,
			"type":"VEC3"
		},
		{
			"bufferView":22,
			"componentType":5126,
			"count":130,
			"type":"VEC2"
		},
		{
			"bufferView":23,
			"componentType":5123,
			"count":372,
			"type":"SCALAR"
		},
		{
			"bufferView":24,
			"componentType":5126,
			"count":50,
			"max":[
				1,
				1,
				1
			],
			"min":[
				-1,
				-0.11022049188613892,
				-1
			],
			"type":"VEC3"
		},
		{
			"bufferView":25,
			"componentType":5126,
			"count":50,
			"type":"VEC3"
		},
		{
			"bufferView":26,
			"componentType":5126,
			"count":50,
			"type":"VEC2"
		},
		{
			"bufferView":27,
			"componentType":5123,
			"count":180,
			"type":"SCALAR"
		},
		{
			"bufferView":28,
			"componentType":5126,
			"count":101,
			"max":[
				0.22593043744564056,
				0.14999999105930328,
				0.14999999105930328
			],
			"min":[
				-0.14999999105930328,
				-0.14999999105930328,
				-0.14999999105930328
			],
			"type":"VEC3"
		},
		{
			"bufferView":29,
			"componentType":5126,
			"count":101,
			"type":"VEC3"
		},
		{
			"bufferView":30,
			"componentType":5126,
			"count":101,
			"type":"VEC2"
		},
		{
			"bufferView":31,
			"componentType":5123,
			"count":246,
			"type":"SCALAR"
		},
		{
			"bufferView":32,
			"componentType":5126,
			"count":10,
			"max":[
				0.1675879955291748,
				0.052098311483860016,
				0.05209831893444061
			],
			"min":[
				-0.167588010430336,
				-0.03982555866241455,
				-0.039825551211833954
			],
			"type":"VEC3"
		},
		{
			"bufferView":33,
			"componentType":5126,
			"count":10,
			"type":"VEC3"
		},
		{
			"bufferView":34,
			"componentType":5126,
			"count":10,
			"type":"VEC2"
		},
		{
			"bufferView":35,
			"componentType":5123,
			"count":24,
			"type":"SCALAR"
		},
		{
			"bufferView":36,
			"componentType":5126,
			"count":56,
			"max":[
				0.14999999105930328,
				0.18079406023025513,
				0.14999999105930328
			],
			"min":[
				-0.14999999105930328,
				-0.14999999105930328,
				-0.14999999105930328
			],
			"type":"VEC3"
		},
		{
			"bufferView":37,
			"componentType":5126,
			"count":56,
			"type":"VEC3"
		},
		{
			"bufferView":38,
			"componentType":5126,
			"count":56,
			"type":"VEC2"
		},
		{
			"bufferView":39,
			"componentType":5123,
			"count":108,
			"type":"SCALAR"
		},
		{
			"bufferView":40,
			"componentType":5126,
			"count":24,
			"max":[
				0.1050645112991333,
				0.14771465957164764,
				0.14999999105930328
			],
			"min":[
				0.06723793596029282,
				-0.10456792265176773,
				-0.14999999105930328
			],
			"type":"VEC3"
		},
		{
			"bufferView":41,
			"componentType":5126,
			"count":24,
			"type":"VEC3"
		},
		{
			"bufferView":42,
			"componentType":5126,
			"count":24,
			"type":"VEC2"
		},
		{
			"bufferView":43,
			"componentType":5123,
			"count":36,
			"type":"SCALAR"
		},
		{
			"bufferView":44,
			"componentType":5126,
			"count":24,
			"max":[
				0.14999999105930328,
				0.14771465957164764,
				0.14999999105930328
			],
			"min":[
				-0.14999999105930328,
				-0.10456792265176773,
				-0.14999999105930328
			],
			"type":"VEC3"
		},
		{
			"bufferView":45,
			"componentType":5126,
			"count":24,
			"type":"VEC3"
		},
		{
			"bufferView":46,
			"componentType":5126,
			"count":24,
			"type":"VEC2"
		},
		{
			"bufferView":47,
			"componentType":5123,
			"count":42,
			"type":"SCALAR"
		},
		{
			"bufferView":48,
			"componentType":5126,
			"count":132,
			"max":[
				0.3467365801334381,
				0.7350828051567078,
				0.022131294012069702
			],
			"min":[
				-0.44766390323638916,
				-0.7350828051567078,
				-0.022131294012069702
			],
			"type":"VEC3"
		},
		{
			"bufferView":49,
			"componentType":5126,
			"count":132,
			"type":"VEC3"
		},
		{
			"bufferView":50,
			"componentType":5126,
			"count":132,
			"type":"VEC2"
		},
		{
			"bufferView":51,
			"componentType":5123,
			"count":534,
			"type":"SCALAR"
		},
		{
			"bufferView":52,
			"componentType":5126,
			"count":4544,
			"max":[
				0.03999999910593033,
				0.1512776017189026,
				0.03999999910593033
			],
			"min":[
				-0.03999999910593033,
				-0.04999999701976776,
				-0.03999999910593033
			],
			"type":"VEC3"
		},
		{
			"bufferView":53,
			"componentType":5126,
			"count":4544,
			"type":"VEC3"
		},
		{
			"bufferView":54,
			"componentType":5126,
			"count":4544,
			"type":"VEC2"
		},
		{
			"bufferView":55,
			"componentType":5123,
			"count":6900,
			"type":"SCALAR"
		},
		{
			"bufferView":56,
			"componentType":5126,
			"count":40,
			"max":[
				0.018257874995470047,
				1.3800218105316162,
				3.2276415824890137
			],
			"min":[
				-0.017051739618182182,
				0,
				3.128239631652832
			],
			"type":"VEC3"
		},
		{
			"bufferView":57,
			"componentType":5126,
			"count":40,
			"type":"VEC3"
		},
		{
			"bufferView":58,
			"componentType":5126,
			"count":40,
			"type":"VEC2"
		},
		{
			"bufferView":59,
			"componentType":5123,
			"count":60,
			"type":"SCALAR"
		},
		{
			"bufferView":60,
			"componentType":5126,
			"count":32,
			"max":[
				0.017904216423630714,
				0.06787008047103882,
				0.44259777665138245
			],
			"min":[
				-0.01738758012652397,
				-0.032705362886190414,
				-0.44259873032569885
			],
			"type":"VEC3"
		},
		{
			"bufferView":61,
			"componentType":5126,
			"count":32,
			"type":"VEC3"
		},
		{
			"bufferView":62,
			"componentType":5126,
			"count":32,
			"type":"VEC2"
		},
		{
			"bufferView":63,
			"componentType":5123,
			"count":48,
			"type":"SCALAR"
		},
		{
			"bufferView":64,
			"componentType":5126,
			"count":36,
			"max":[
				0.018257874995470047,
				1.3800218105316162,
				2.4414000511169434
			],
			"min":[
				-0.017051739618182182,
				0,
				2.3419981002807617
			],
			"type":"VEC3"
		},
		{
			"bufferView":65,
			"componentType":5126,
			"count":36,
			"type":"VEC3"
		},
		{
			"bufferView":66,
			"componentType":5126,
			"count":36,
			"type":"VEC2"
		},
		{
			"bufferView":67,
			"componentType":5123,
			"count":54,
			"type":"SCALAR"
		},
		{
			"bufferView":68,
			"componentType":5126,
			"count":182,
			"max":[
				0.5052559971809387,
				0.11470836400985718,
				-1
			],
			"min":[
				-0.2473720908164978,
				0.08843957632780075,
				-1.086457371711731
			],
			"type":"VEC3"
		},
		{
			"bufferView":69,
			"componentType":5126,
			"count":182,
			"type":"VEC3"
		},
		{
			"bufferView":70,
			"componentType":5126,
			"count":182,
			"type":"VEC2"
		},
		{
			"bufferView":71,
			"componentType":5123,
			"count":372,
			"type":"SCALAR"
		},
		{
			"bufferView":72,
			"componentType":5126,
			"count":132,
			"max":[
				1.2578837871551514,
				-0.11277103424072266,
				-0.5797231197357178
			],
			"min":[
				-1,
				-0.8738640546798706,
				-1
			],
			"type":"VEC3"
		},
		{
			"bufferView":73,
			"componentType":5126,
			"count":132,
			"type":"VEC3"
		},
		{
			"bufferView":74,
			"componentType":5126,
			"count":132,
			"type":"VEC2"
		},
		{
			"bufferView":75,
			"componentType":5123,
			"count":276,
			"type":"SCALAR"
		},
		{
			"bufferView":76,
			"componentType":5126,
			"count":28,
			"max":[
				1.2578837871551514,
				0.31591910123825073,
				-0.9538640379905701
			],
			"min":[
				-1,
				-0.11277136951684952,
				-1
			],
			"type":"VEC3"
		},
		{
			"bufferView":77,
			"componentType":5126,
			"count":28,
			"type":"VEC3"
		},
		{
			"bufferView":78,
			"componentType":5126,
			"count":28,
			"type":"VEC2"
		},
		{
			"bufferView":79,
			"componentType":5123,
			"count":84,
			"type":"SCALAR"
		},
		{
			"bufferView":80,
			"componentType":5126,
			"count":74,
			"max":[
				1.094749927520752,
				0.726850152015686,
				1.387009620666504
			],
			"min":[
				-1.1631338596343994,
				-0.6978553533554077,
				-0.6129904389381409
			],
			"type":"VEC3"
		},
		{
			"bufferView":81,
			"componentType":5126,
			"count":74,
			"type":"VEC3"
		},
		{
			"bufferView":82,
			"componentType":5126,
			"count":74,
			"type":"VEC2"
		},
		{
			"bufferView":83,
			"componentType":5123,
			"count":132,
			"type":"SCALAR"
		},
		{
			"bufferView":84,
			"componentType":5126,
			"count":6,
			"max":[
				1.094749927520752,
				0.726850152015686,
				1.387009620666504
			],
			"min":[
				-1.1631338596343994,
				0.726850152015686,
				-0.6129904389381409
			],
			"type":"VEC3"
		},
		{
			"bufferView":85,
			"componentType":5126,
			"count":6,
			"type":"VEC3"
		},
		{
			"bufferView":86,
			"componentType":5126,
			"count":6,
			"type":"VEC2"
		},
		{
			"bufferView":87,
			"componentType":5123,
			"count":12,
			"type":"SCALAR"
		},
		{
			"bufferView":88,
			"componentType":5126,
			"count":12,
			"max":[
				-1.1631338596343994,
				0.726850152015686,
				1.387009620666504
			],
			"min":[
				-1.1631338596343994,
				-0.6978553533554077,
				-0.6129904389381409
			],
			"type":"VEC3"
		},
		{
			"bufferView":89,
			"componentType":5126,
			"count":12,
			"type":"VEC3"
		},
		{
			"bufferView":90,
			"componentType":5126,
			"count":12,
			"type":"VEC2"
		},
		{
			"bufferView":91,
			"componentType":5123,
			"count":30,
			"type":"SCALAR"
		},
		{
			"bufferView":92,
			"componentType":5126,
			"count":117,
			"max":[
				3.7200000286102295,
				2,
				0.00027823448181152344
			],
			"min":[
				0,
				0,
				-0.9064368009567261
			],
			"type":"VEC3"
		},
		{
			"bufferView":93,
			"componentType":5126,
			"count":117,
			"type":"VEC3"
		},
		{
			"bufferView":94,
			"componentType":5126,
			"count":117,
			"type":"VEC2"
		},
		{
			"bufferView":95,
			"componentType":5123,
			"count":261,
			"type":"SCALAR"
		},
		{
			"bufferView":96,
			"componentType":5126,
			"count":12,
			"max":[
				0,
				2,
				3.6499998569488525
			],
			"min":[
				0,
				0,
				0
			],
			"type":"VEC3"
		},
		{
			"bufferView":97,
			"componentType":5126,
			"count":12,
			"type":"VEC3"
		},
		{
			"bufferView":98,
			"componentType":5126,
			"count":12,
			"type":"VEC2"
		},
		{
			"bufferView":99,
			"componentType":5123,
			"count":30,
			"type":"SCALAR"
		},
		{
			"bufferView":100,
			"componentType":5126,
			"count":62,
			"max":[
				3.7200000286102295,
				0.0020148828625679016,
				3.6499998569488525
			],
			"min":[
				0,
				0,
				0
			],
			"type":"VEC3"
		},
		{
			"bufferView":101,
			"componentType":5126,
			"count":62,
			"type":"VEC3"
		},
		{
			"bufferView":102,
			"componentType":5126,
			"count":62,
			"type":"VEC2"
		},
		{
			"bufferView":103,
			"componentType":5123,
			"count":138,
			"type":"SCALAR"
		},
		{
			"bufferView":104,
			"componentType":5126,
			"count":17,
			"max":[
				3.7200000286102295,
				2,
				3.6499998569488525
			],
			"min":[
				0,
				0,
				3.6499998569488525
			],
			"type":"VEC3"
		},
		{
			"bufferView":105,
			"componentType":5126,
			"count":17,
			"type":"VEC3"
		},
		{
			"bufferView":106,
			"componentType":5126,
			"count":17,
			"type":"VEC2"
		},
		{
			"bufferView":107,
			"componentType":5123,
			"count":33,
			"type":"SCALAR"
		},
		{
			"bufferView":108,
			"componentType":5126,
			"count":251,
			"max":[
				4.02752685546875,
				1.3559914827346802,
				2.666508436203003
			],
			"min":[
				3.98915958404541,
				0.010161187499761581,
				1.0844107866287231
			],
			"type":"VEC3"
		},
		{
			"bufferView":109,
			"componentType":5126,
			"count":251,
			"type":"VEC3"
		},
		{
			"bufferView":110,
			"componentType":5126,
			"count":251,
			"type":"VEC2"
		},
		{
			"bufferView":111,
			"componentType":5123,
			"count":441,
			"type":"SCALAR"
		},
		{
			"bufferView":112,
			"componentType":5126,
			"count":22,
			"max":[
				0.283582478761673,
				1.8347856998443604,
				0.024184465408325195
			],
			"min":[
				0.17756667733192444,
				0.15005409717559814,
				-0.04213098809123039
			],
			"type":"VEC3"
		},
		{
			"bufferView":113,
			"componentType":5126,
			"count":22,
			"type":"VEC3"
		},
		{
			"bufferView":114,
			"componentType":5126,
			"count":22,
			"type":"VEC2"
		},
		{
			"bufferView":115,
			"componentType":5123,
			"count":36,
			"type":"SCALAR"
		},
		{
			"bufferView":116,
			"componentType":5126,
			"count":24,
			"max":[
				3.570324182510376,
				1.8347856998443604,
				0.024184465408325195
			],
			"min":[
				3.4653866291046143,
				0.15005409717559814,
				-0.04213098809123039
			],
			"type":"VEC3"
		},
		{
			"bufferView":117,
			"componentType":5126,
			"count":24,
			"type":"VEC3"
		},
		{
			"bufferView":118,
			"componentType":5126,
			"count":24,
			"type":"VEC2"
		},
		{
			"bufferView":119,
			"componentType":5123,
			"count":42,
			"type":"SCALAR"
		},
		{
			"bufferView":120,
			"componentType":5126,
			"count":51,
			"max":[
				3.570324182510376,
				0.252617746591568,
				0.024184465408325195
			],
			"min":[
				0.17756667733192444,
				0.15005409717559814,
				-0.04489729180932045
			],
			"type":"VEC3"
		},
		{
			"bufferView":121,
			"componentType":5126,
			"count":51,
			"type":"VEC3"
		},
		{
			"bufferView":122,
			"componentType":5126,
			"count":51,
			"type":"VEC2"
		},
		{
			"bufferView":123,
			"componentType":5123,
			"count":117,
			"type":"SCALAR"
		},
		{
			"bufferView":124,
			"componentType":5126,
			"count":27,
			"max":[
				3.570324182510376,
				1.8347856998443604,
				0.024184465408325195
			],
			"min":[
				0.17756667733192444,
				1.715994119644165,
				-0.04489729180932045
			],
			"type":"VEC3"
		},
		{
			"bufferView":125,
			"componentType":5126,
			"count":27,
			"type":"VEC3"
		},
		{
			"bufferView":126,
			"componentType":5126,
			"count":27,
			"type":"VEC2"
		},
		{
			"bufferView":127,
			"componentType":5123,
			"count":45,
			"type":"SCALAR"
		},
		{
			"bufferView":128,
			"componentType":5126,
			"count":36,
			"max":[
				4.003946781158447,
				2,
				3.6499998569488525
			],
			"min":[
				3.7200000286102295,
				0,
				0
			],
			"type":"VEC3"
		},
		{
			"bufferView":129,
			"componentType":5126,
			"count":36,
			"type":"VEC3"
		},
		{
			"bufferView":130,
			"componentType":5126,
			"count":36,
			"type":"VEC2"
		},
		{
			"bufferView":131,
			"componentType":5123,
			"count":75,
			"type":"SCALAR"
		},
		{
			"bufferView":132,
			"componentType":5126,
			"count":8,
			"max":[
				4.003946781158447,
				0,
				2.666508436203003
			],
			"min":[
				3.7200000286102295,
				0,
				1.0709989070892334
			],
			"type":"VEC3"
		},
		{
			"bufferView":133,
			"componentType":5126,
			"count":8,
			"type":"VEC3"
		},
		{
			"bufferView":134,
			"componentType":5126,
			"count":8,
			"type":"VEC2"
		},
		{
			"bufferView":135,
			"componentType":5123,
			"count":18,
			"type":"SCALAR"
		},
		{
			"bufferView":136,
			"componentType":5126,
			"count":288,
			"max":[
				0.5610000491142273,
				0.012884104624390602,
				0.27000001072883606
			],
			"min":[
				-0.5610000491142273,
				0,
				-0.27000001072883606
			],
			"type":"VEC3"
		},
		{
			"bufferView":137,
			"componentType":5126,
			"count":288,
			"type":"VEC3"
		},
		{
			"bufferView":138,
			"componentType":5126,
			"count":288,
			"type":"VEC2"
		},
		{
			"bufferView":139,
			"componentType":5123,
			"count":564,
			"type":"SCALAR"
		},
		{
			"bufferView":140,
			"componentType":5126,
			"count":115,
			"max":[
				0.004999999888241291,
				1.121606469154358,
				0.004999999888241291
			],
			"min":[
				-0.004999999888241291,
				0,
				-0.004999999888241291
			],
			"type":"VEC3"
		},
		{
			"bufferView":141,
			"componentType":5126,
			"count":115,
			"type":"VEC3"
		},
		{
			"bufferView":142,
			"componentType":5126,
			"count":115,
			"type":"VEC2"
		},
		{
			"bufferView":143,
			"componentType":5123,
			"count":249,
			"type":"SCALAR"
		},
		{
			"bufferView":144,
			"componentType":5126,
			"count":29,
			"max":[
				0.004999999888241291,
				1.121606469154358,
				0.004999999888241291
			],
			"min":[
				-0.004999999888241291,
				0.04001256451010704,
				-0.004999999888241291
			],
			"type":"VEC3"
		},
		{
			"bufferView":145,
			"componentType":5126,
			"count":29,
			"type":"VEC3"
		},
		{
			"bufferView":146,
			"componentType":5126,
			"count":29,
			"type":"VEC2"
		},
		{
			"bufferView":147,
			"componentType":5123,
			"count":45,
			"type":"SCALAR"
		},
		{
			"bufferView":148,
			"componentType":5126,
			"count":32,
			"max":[
				-0.004999999888241291,
				1.121606469154358,
				0.004999999888241291
			],
			"min":[
				-0.004999999888241291,
				0,
				-0.004999999888241291
			],
			"type":"VEC3"
		},
		{
			"bufferView":149,
			"componentType":5126,
			"count":32,
			"type":"VEC3"
		},
		{
			"bufferView":150,
			"componentType":5126,
			"count":32,
			"type":"VEC2"
		},
		{
			"bufferView":151,
			"componentType":5123,
			"count":126,
			"type":"SCALAR"
		},
		{
			"bufferView":152,
			"componentType":5126,
			"count":212,
			"max":[
				0.01058205496519804,
				0.008571717888116837,
				0.004999999888241291
			],
			"min":[
				-0.01058205496519804,
				0,
				-0.004999999888241291
			],
			"type":"VEC3"
		},
		{
			"bufferView":153,
			"componentType":5126,
			"count":212,
			"type":"VEC3"
		},
		{
			"bufferView":154,
			"componentType":5126,
			"count":212,
			"type":"VEC2"
		},
		{
			"bufferView":155,
			"componentType":5123,
			"count":1260,
			"type":"SCALAR"
		},
		{
			"bufferView":156,
			"componentType":5126,
			"count":193,
			"max":[
				0.003499999875202775,
				0.0022154448088258505,
				0.004999999888241291
			],
			"min":[
				-0.003499999875202775,
				-0.003555664559826255,
				-0.005063140299171209
			],
			"type":"VEC3"
		},
		{
			"bufferView":157,
			"componentType":5126,
			"count":193,
			"type":"VEC3"
		},
		{
			"bufferView":158,
			"componentType":5126,
			"count":193,
			"type":"VEC2"
		},
		{
			"bufferView":159,
			"componentType":5123,
			"count":504,
			"type":"SCALAR"
		},
		{
			"bufferView":160,
			"componentType":5126,
			"count":192,
			"max":[
				0.0024999999441206455,
				0.004999999888241291,
				0.0024999999441206455
			],
			"min":[
				-0.0024999999441206455,
				-0.004999999888241291,
				-0.0024999999441206455
			],
			"type":"VEC3"
		},
		{
			"bufferView":161,
			"componentType":5126,
			"count":192,
			"type":"VEC3"
		},
		{
			"bufferView":162,
			"componentType":5126,
			"count":192,
			"type":"VEC2"
		},
		{
			"bufferView":163,
			"componentType":5123,
			"count":372,
			"type":"SCALAR"
		},
		{
			"bufferView":164,
			"componentType":5126,
			"count":76,
			"max":[
				0.007725600618869066,
				0.002188632497563958,
				0.007436641026288271
			],
			"min":[
				-0.006765000056475401,
				-2.98023217215615e-10,
				-0.008320300839841366
			],
			"type":"VEC3"
		},
		{
			"bufferView":165,
			"componentType":5126,
			"count":76,
			"type":"VEC3"
		},
		{
			"bufferView":166,
			"componentType":5126,
			"count":76,
			"type":"VEC2"
		},
		{
			"bufferView":167,
			"componentType":5123,
			"count":204,
			"type":"SCALAR"
		},
		{
			"bufferView":168,
			"componentType":5126,
			"count":150,
			"max":[
				0.005116253159940243,
				0.0006513595581054688,
				0.009941677562892437
			],
			"min":[
				0.0009519515442661941,
				-0.02198072150349617,
				-0.005198097787797451
			],
			"type":"VEC3"
		},
		{
			"bufferView":169,
			"componentType":5126,
			"count":150,
			"type":"VEC3"
		},
		{
			"bufferView":170,
			"componentType":5126,
			"count":150,
			"type":"VEC2"
		},
		{
			"bufferView":171,
			"componentType":5123,
			"count":690,
			"type":"SCALAR"
		},
		{
			"bufferView":172,
			"componentType":5126,
			"count":4,
			"max":[
				0.2167322337627411,
				0.0010999999940395355,
				0.12098711729049683
			],
			"min":[
				-0.2167322337627411,
				0.0010999999940395355,
				-0.12098711729049683
			],
			"type":"VEC3"
		},
		{
			"bufferView":173,
			"componentType":5126,
			"count":4,
			"type":"VEC3"
		},
		{
			"bufferView":174,
			"componentType":5126,
			"count":4,
			"type":"VEC2"
		},
		{
			"bufferView":175,
			"componentType":5123,
			"count":6,
			"type":"SCALAR"
		},
		{
			"bufferView":176,
			"componentType":5126,
			"count":64,
			"max":[
				0.21884597837924957,
				0.009994668886065483,
				0.13532637059688568
			],
			"min":[
				-0.21884597837924957,
				0,
				-0.12310086190700531
			],
			"type":"VEC3"
		},
		{
			"bufferView":177,
			"componentType":5126,
			"count":64,
			"type":"VEC3"
		},
		{
			"bufferView":178,
			"componentType":5126,
			"count":64,
			"type":"VEC2"
		},
		{
			"bufferView":179,
			"componentType":5123,
			"count":126,
			"type":"SCALAR"
		},
		{
			"bufferView":180,
			"componentType":5126,
			"count":159,
			"max":[
				0.09510409086942673,
				0.045973896980285645,
				0.004999999888241291
			],
			"min":[
				-0.09494064003229141,
				0,
				-0.06251616775989532
			],
			"type":"VEC3"
		},
		{
			"bufferView":181,
			"componentType":5126,
			"count":159,
			"type":"VEC3"
		},
		{
			"bufferView":182,
			"componentType":5126,
			"count":159,
			"type":"VEC2"
		},
		{
			"bufferView":183,
			"componentType":5123,
			"count":438,
			"type":"SCALAR"
		},
		{
			"bufferView":184,
			"componentType":5126,
			"count":391,
			"max":[
				0.017999952659010887,
				0.07152895629405975,
				0.01800014264881611
			],
			"min":[
				-0.018000047653913498,
				-0.0695226863026619,
				-0.018000096082687378
			],
			"type":"VEC3"
		},
		{
			"bufferView":185,
			"componentType":5126,
			"count":391,
			"type":"VEC3"
		},
		{
			"bufferView":186,
			"componentType":5126,
			"count":391,
			"type":"VEC2"
		},
		{
			"bufferView":187,
			"componentType":5123,
			"count":1410,
			"type":"SCALAR"
		},
		{
			"bufferView":188,
			"componentType":5126,
			"count":30,
			"max":[
				0.49300825595855713,
				0.013751089572906494,
				0.2751140594482422
			],
			"min":[
				-0.4930083751678467,
				-0.01375114917755127,
				-0.2751138210296631
			],
			"type":"VEC3"
		},
		{
			"bufferView":189,
			"componentType":5126,
			"count":30,
			"type":"VEC3"
		},
		{
			"bufferView":190,
			"componentType":5126,
			"count":30,
			"type":"VEC2"
		},
		{
			"bufferView":191,
			"componentType":5123,
			"count":78,
			"type":"SCALAR"
		},
		{
			"bufferView":192,
			"componentType":5126,
			"count":10,
			"max":[
				0.49300825595855713,
				0.013751089572906494,
				0.2751140594482422
			],
			"min":[
				-0.4930083751678467,
				-0.01375114917755127,
				-0.2751138210296631
			],
			"type":"VEC3"
		},
		{
			"bufferView":193,
			"componentType":5126,
			"count":10,
			"type":"VEC3"
		},
		{
			"bufferView":194,
			"componentType":5126,
			"count":10,
			"type":"VEC2"
		},
		{
			"bufferView":195,
			"componentType":5123,
			"count":18,
			"type":"SCALAR"
		},
		{
			"bufferView":196,
			"componentType":5126,
			"count":43,
			"max":[
				0.7352068424224854,
				0.2192242443561554,
				0.3302903175354004
			],
			"min":[
				-0.6333991289138794,
				-0.3473187983036041,
				-0.3000643253326416
			],
			"type":"VEC3"
		},
		{
			"bufferView":197,
			"componentType":5126,
			"count":43,
			"type":"VEC3"
		},
		{
			"bufferView":198,
			"componentType":5126,
			"count":43,
			"type":"VEC2"
		},
		{
			"bufferView":199,
			"componentType":5123,
			"count":99,
			"type":"SCALAR"
		},
		{
			"bufferView":200,
			"componentType":5126,
			"count":35,
			"max":[
				0.7352068424224854,
				0.2192242443561554,
				0.3302903175354004
			],
			"min":[
				-0.6333991289138794,
				-0.3473187983036041,
				-0.3000643253326416
			],
			"type":"VEC3"
		},
		{
			"bufferView":201,
			"componentType":5126,
			"count":35,
			"type":"VEC3"
		},
		{
			"bufferView":202,
			"componentType":5126,
			"count":35,
			"type":"VEC2"
		},
		{
			"bufferView":203,
			"componentType":5123,
			"count":90,
			"type":"SCALAR"
		},
		{
			"bufferView":204,
			"componentType":5126,
			"count":23,
			"max":[
				0.7352068424224854,
				0.2192242443561554,
				0.3302903175354004
			],
			"min":[
				-0.6333991289138794,
				-0.20129500329494476,
				-0.3000643253326416
			],
			"type":"VEC3"
		},
		{
			"bufferView":205,
			"componentType":5126,
			"count":23,
			"type":"VEC3"
		},
		{
			"bufferView":206,
			"componentType":5126,
			"count":23,
			"type":"VEC2"
		},
		{
			"bufferView":207,
			"componentType":5123,
			"count":57,
			"type":"SCALAR"
		},
		{
			"bufferView":208,
			"componentType":5126,
			"count":98,
			"max":[
				0.11282661557197571,
				0.03411298245191574,
				0.11282644420862198
			],
			"min":[
				-0.11282643675804138,
				-0.04999999701976776,
				-0.11282660067081451
			],
			"type":"VEC3"
		},
		{
			"bufferView":209,
			"componentType":5126,
			"count":98,
			"type":"VEC3"
		},
		{
			"bufferView":210,
			"componentType":5126,
			"count":98,
			"type":"VEC2"
		},
		{
			"bufferView":211,
			"componentType":5123,
			"count":282,
			"type":"SCALAR"
		}
	],
	"bufferViews":[
		{
			"buffer":0,
			"byteLength":276,
			"byteOffset":0,
			"target":34962
		},
		{
			"buffer":0,
			"byteLength":276,
			"byteOffset":276,
			"target":34962
		},
		{
			"buffer":0,
			"byteLength":184,
			"byteOffset":552,
			"target":34962
		},
		{
			"buffer":0,
			"byteLength":78,
			"byteOffset":736,
			"target":34963
		},
		{
			"buffer":0,
			"byteLength":216,
			"byteOffset":816,
			"target":34962
		},
		{
			"buffer":0,
			"byteLength":216,
			"byteOffset":1032,
			"target":34962
		},
		{
			"buffer":0,
			"byteLength":144,
			"byteOffset":1248,
			"target":34962
		},
		{
			"buffer":0,
			"byteLength":60,
			"byteOffset":1392,
			"target":34963
		},
		{
			"buffer":0,
			"byteLength":144,
			"byteOffset":1452,
			"target":34962
		},
		{
			"buffer":0,
			"byteLength":144,
			"byteOffset":1596,
			"target":34962
		},
		{
			"buffer":0,
			"byteLength":96,
			"byteOffset":1740,
			"target":34962
		},
		{
			"buffer":0,
			"byteLength":84,
			"byteOffset":1836,
			"target":34963
		},
		{
			"buffer":0,
			"byteLength":72,
			"byteOffset":1920,
			"target":34962
		},
		{
			"buffer":0,
			"byteLength":72,
			"byteOffset":1992,
			"target":34962
		},
		{
			"buffer":0,
			"byteLength":48,
			"byteOffset":2064,
			"target":34962
		},
		{
			"buffer":0,
			"byteLength":24,
			"byteOffset":2112,
			"target":34963
		},
		{
			"buffer":0,
			"byteLength":2112,
			"byteOffset":2136,
			"target":34962
		},
		{
			"buffer":0,
			"byteLength":2112,
			"byteOffset":4248,
			"target":34962
		},
		{
			"buffer":0,
			"byteLength":1408,
			"byteOffset":6360,
			"target":34962
		},
		{
			"buffer":0,
			"byteLength":1512,
			"byteOffset":7768,
			"target":34963
		},
		{
			"buffer":0,
			"byteLength":1560,
			"byteOffset":9280,
			"target":34962
		},
		{
			"buffer":0,
			"byteLength":1560,
			"byteOffset":10840,
			"target":34962
		},
		{
			"buffer":0,
			"byteLength":1040,
			"byteOffset":12400,
			"target":34962
		},
		{
			"buffer":0,
			"byteLength":744,
			"byteOffset":13440,
			"target":34963
		},
		{
			"buffer":0,
			"byteLength":600,
			"byteOffset":14184,
			"target":34962
		},
		{
			"buffer":0,
			"byteLength":600,
			"byteOffset":14784,
			"target":34962
		},
		{
			"buffer":0,
			"byteLength":400,
			"byteOffset":15384,
			"target":34962
		},
		{
			"buffer":0,
			"byteLength":360,
			"byteOffset":15784,
			"target":34963
		},
		{
			"buffer":0,
			"byteLength":1212,
			"byteOffset":16144,
			"target":34962
		},
		{
			"buffer":0,
			"byteLength":1212,
			"byteOffset":17356,
			"target":34962
		},
		{
			"buffer":0,
			"byteLength":808,
			"byteOffset":18568,
			"target":34962
		},
		{
			"buffer":0,
			"byteLength":492,
			"byteOffset":19376,
			"target":34963
		},
		{
			"buffer":0,
			"byteLength":120,
			"byteOffset":19868,
			"target":34962
		},
		{
			"buffer":0,
			"byteLength":120,
			"byteOffset":19988,
			"target":34962
		},
		{
			"buffer":0,
			"byteLength":80,
			"byteOffset":20108,
			"target":34962
		},
		{
			"buffer":0,
			"byteLength":48,
			"byteOffset":20188,
			"target":34963
		},
		{
			"buffer":0,
			"byteLength":672,
			"byteOffset":20236,
			"target":34962
		},
		{
			"buffer":0,
			"byteLength":672,
			"byteOffset":20908,
			"target":34962
		},
		{
			"buffer":0,
			"byteLength":448,
			"byteOffset":21580,
			"target":34962
		},
		{
			"buffer":0,
			"byteLength":216,
			"byteOffset":22028,
			"target":34963
		},
		{
			"buffer":0,
			"byteLength":288,
			"byteOffset":22244,
			"target":34962
		},
		{
			"buffer":0,
			"byteLength":288,
			"byteOffset":22532,
			"target":34962
		},
		{
			"buffer":0,
			"byteLength":192,
			"byteOffset":22820,
			"target":34962
		},
		{
			"buffer":0,
			"byteLength":72,
			"byteOffset":23012,
			"target":34963
		},
		{
			"buffer":0,
			"byteLength":288,
			"byteOffset":23084,
			"target":34962
		},
		{
			"buffer":0,
			"byteLength":288,
			"byteOffset":23372,
			"target":34962
		},
		{
			"buffer":0,
			"byteLength":192,
			"byteOffset":23660,
			"target":34962
		},
		{
			"buffer":0,
			"byteLength":84,
			"byteOffset":23852,
			"target":34963
		},
		{
			"buffer":0,
			"byteLength":1584,
			"byteOffset":23936,
			"target":34962
		},
		{
			"buffer":0,
			"byteLength":1584,
			"byteOffset":25520,
			"target":34962
		},
		{
			"buffer":0,
			"byteLength":1056,
			"byteOffset":27104,
			"target":34962
		},
		{
			"buffer":0,
			"byteLength":1068,
			"byteOffset":28160,
			"target":34963
		},
		{
			"buffer":0,
			"byteLength":54528,
			"byteOffset":29228,
			"target":34962
		},
		{
			"buffer":0,
			"byteLength":54528,
			"byteOffset":83756,
			"target":34962
		},
		{
			"buffer":0,
			"byteLength":36352,
			"byteOffset":138284,
			"target":34962
		},
		{
			"buffer":0,
			"byteLength":13800,
			"byteOffset":174636,
			"target":34963
		},
		{
			"buffer":0,
			"byteLength":480,
			"byteOffset":188436,
			"target":34962
		},
		{
			"buffer":0,
			"byteLength":480,
			"byteOffset":188916,
			"target":34962
		},
		{
			"buffer":0,
			"byteLength":320,
			"byteOffset":189396,
			"target":34962
		},
		{
			"buffer":0,
			"byteLength":120,
			"byteOffset":189716,
			"target":34963
		},
		{
			"buffer":0,
			"byteLength":384,
			"byteOffset":189836,
			"target":34962
		},
		{
			"buffer":0,
			"byteLength":384,
			"byteOffset":190220,
			"target":34962
		},
		{
			"buffer":0,
			"byteLength":256,
			"byteOffset":190604,
			"target":34962
		},
		{
			"buffer":0,
			"byteLength":96,
			"byteOffset":190860,
			"target":34963
		},
		{
			"buffer":0,
			"byteLength":432,
			"byteOffset":190956,
			"target":34962
		},
		{
			"buffer":0,
			"byteLength":432,
			"byteOffset":191388,
			"target":34962
		},
		{
			"buffer":0,
			"byteLength":288,
			"byteOffset":191820,
			"target":34962
		},
		{
			"buffer":0,
			"byteLength":108,
			"byteOffset":192108,
			"target":34963
		},
		{
			"buffer":0,
			"byteLength":2184,
			"byteOffset":192216,
			"target":34962
		},
		{
			"buffer":0,
			"byteLength":2184,
			"byteOffset":194400,
			"target":34962
		},
		{
			"buffer":0,
			"byteLength":1456,
			"byteOffset":196584,
			"target":34962
		},
		{
			"buffer":0,
			"byteLength":744,
			"byteOffset":198040,
			"target":34963
		},
		{
			"buffer":0,
			"byteLength":1584,
			"byteOffset":198784,
			"target":34962
		},
		{
			"buffer":0,
			"byteLength":1584,
			"byteOffset":200368,
			"target":34962
		},
		{
			"buffer":0,
			"byteLength":1056,
			"byteOffset":201952,
			"target":34962
		},
		{
			"buffer":0,
			"byteLength":552,
			"byteOffset":203008,
			"target":34963
		},
		{
			"buffer":0,
			"byteLength":336,
			"byteOffset":203560,
			"target":34962
		},
		{
			"buffer":0,
			"byteLength":336,
			"byteOffset":203896,
			"target":34962
		},
		{
			"buffer":0,
			"byteLength":224,
			"byteOffset":204232,
			"target":34962
		},
		{
			"buffer":0,
			"byteLength":168,
			"byteOffset":204456,
			"target":34963
		},
		{
			"buffer":0,
			"byteLength":888,
			"byteOffset":204624,
			"target":34962
		},
		{
			"buffer":0,
			"byteLength":888,
			"byteOffset":205512,
			"target":34962
		},
		{
			"buffer":0,
			"byteLength":592,
			"byteOffset":206400,
			"target":34962
		},
		{
			"buffer":0,
			"byteLength":264,
			"byteOffset":206992,
			"target":34963
		},
		{
			"buffer":0,
			"byteLength":72,
			"byteOffset":207256,
			"target":34962
		},
		{
			"buffer":0,
			"byteLength":72,
			"byteOffset":207328,
			"target":34962
		},
		{
			"buffer":0,
			"byteLength":48,
			"byteOffset":207400,
			"target":34962
		},
		{
			"buffer":0,
			"byteLength":24,
			"byteOffset":207448,
			"target":34963
		},
		{
			"buffer":0,
			"byteLength":144,
			"byteOffset":207472,
			"target":34962
		},
		{
			"buffer":0,
			"byteLength":144,
			"byteOffset":207616,
			"target":34962
		},
		{
			"buffer":0,
			"byteLength":96,
			"byteOffset":207760,
			"target":34962
		},
		{
			"buffer":0,
			"byteLength":60,
			"byteOffset":207856,
			"target":34963
		},
		{
			"buffer":0,
			"byteLength":1404,
			"byteOffset":207916,
			"target":34962
		},
		{
			"buffer":0,
			"byteLength":1404,
			"byteOffset":209320,
			"target":34962
		},
		{
			"buffer":0,
			"byteLength":936,
			"byteOffset":210724,
			"target":34962
		},
		{
			"buffer":0,
			"byteLength":522,
			"byteOffset":211660,
			"target":34963
		},
		{
			"buffer":0,
			"byteLength":144,
			"byteOffset":212184,
			"target":34962
		},
		{
			"buffer":0,
			"byteLength":144,
			"byteOffset":212328,
			"target":34962
		},
		{
			"buffer":0,
			"byteLength":96,
			"byteOffset":212472,
			"target":34962
		},
		{
			"buffer":0,
			"byteLength":60,
			"byteOffset":212568,
			"target":34963
		},
		{
			"buffer":0,
			"byteLength":744,
			"byteOffset":212628,
			"target":34962
		},
		{
			"buffer":0,
			"byteLength":744,
			"byteOffset":213372,
			"target":34962
		},
		{
			"buffer":0,
			"byteLength":496,
			"byteOffset":214116,
			"target":34962
		},
		{
			"buffer":0,
			"byteLength":276,
			"byteOffset":214612,
			"target":34963
		},
		{
			"buffer":0,
			"byteLength":204,
			"byteOffset":214888,
			"target":34962
		},
		{
			"buffer":0,
			"byteLength":204,
			"byteOffset":215092,
			"target":34962
		},
		{
			"buffer":0,
			"byteLength":136,
			"byteOffset":215296,
			"target":34962
		},
		{
			"buffer":0,
			"byteLength":66,
			"byteOffset":215432,
			"target":34963
		},
		{
			"buffer":0,
			"byteLength":3012,
			"byteOffset":215500,
			"target":34962
		},
		{
			"buffer":0,
			"byteLength":3012,
			"byteOffset":218512,
			"target":34962
		},
		{
			"buffer":0,
			"byteLength":2008,
			"byteOffset":221524,
			"target":34962
		},
		{
			"buffer":0,
			"byteLength":882,
			"byteOffset":223532,
			"target":34963
		},
		{
			"buffer":0,
			"byteLength":264,
			"byteOffset":224416,
			"target":34962
		},
		{
			"buffer":0,
			"byteLength":264,
			"byteOffset":224680,
			"target":34962
		},
		{
			"buffer":0,
			"byteLength":176,
			"byteOffset":224944,
			"target":34962
		},
		{
			"buffer":0,
			"byteLength":72,
			"byteOffset":225120,
			"target":34963
		},
		{
			"buffer":0,
			"byteLength":288,
			"byteOffset":225192,
			"target":34962
		},
		{
			"buffer":0,
			"byteLength":288,
			"byteOffset":225480,
			"target":34962
		},
		{
			"buffer":0,
			"byteLength":192,
			"byteOffset":225768,
			"target":34962
		},
		{
			"buffer":0,
			"byteLength":84,
			"byteOffset":225960,
			"target":34963
		},
		{
			"buffer":0,
			"byteLength":612,
			"byteOffset":226044,
			"target":34962
		},
		{
			"buffer":0,
			"byteLength":612,
			"byteOffset":226656,
			"target":34962
		},
		{
			"buffer":0,
			"byteLength":408,
			"byteOffset":227268,
			"target":34962
		},
		{
			"buffer":0,
			"byteLength":234,
			"byteOffset":227676,
			"target":34963
		},
		{
			"buffer":0,
			"byteLength":324,
			"byteOffset":227912,
			"target":34962
		},
		{
			"buffer":0,
			"byteLength":324,
			"byteOffset":228236,
			"target":34962
		},
		{
			"buffer":0,
			"byteLength":216,
			"byteOffset":228560,
			"target":34962
		},
		{
			"buffer":0,
			"byteLength":90,
			"byteOffset":228776,
			"target":34963
		},
		{
			"buffer":0,
			"byteLength":432,
			"byteOffset":228868,
			"target":34962
		},
		{
			"buffer":0,
			"byteLength":432,
			"byteOffset":229300,
			"target":34962
		},
		{
			"buffer":0,
			"byteLength":288,
			"byteOffset":229732,
			"target":34962
		},
		{
			"buffer":0,
			"byteLength":150,
			"byteOffset":230020,
			"target":34963
		},
		{
			"buffer":0,
			"byteLength":96,
			"byteOffset":230172,
			"target":34962
		},
		{
			"buffer":0,
			"byteLength":96,
			"byteOffset":230268,
			"target":34962
		},
		{
			"buffer":0,
			"byteLength":64,
			"byteOffset":230364,
			"target":34962
		},
		{
			"buffer":0,
			"byteLength":36,
			"byteOffset":230428,
			"target":34963
		},
		{
			"buffer":0,
			"byteLength":3456,
			"byteOffset":230464,
			"target":34962
		},
		{
			"buffer":0,
			"byteLength":3456,
			"byteOffset":233920,
			"target":34962
		},
		{
			"buffer":0,
			"byteLength":2304,
			"byteOffset":237376,
			"target":34962
		},
		{
			"buffer":0,
			"byteLength":1128,
			"byteOffset":239680,
			"target":34963
		},
		{
			"buffer":0,
			"byteLength":1380,
			"byteOffset":240808,
			"target":34962
		},
		{
			"buffer":0,
			"byteLength":1380,
			"byteOffset":242188,
			"target":34962
		},
		{
			"buffer":0,
			"byteLength":920,
			"byteOffset":243568,
			"target":34962
		},
		{
			"buffer":0,
			"byteLength":498,
			"byteOffset":244488,
			"target":34963
		},
		{
			"buffer":0,
			"byteLength":348,
			"byteOffset":244988,
			"target":34962
		},
		{
			"buffer":0,
			"byteLength":348,
			"byteOffset":245336,
			"target":34962
		},
		{
			"buffer":0,
			"byteLength":232,
			"byteOffset":245684,
			"target":34962
		},
		{
			"buffer":0,
			"byteLength":90,
			"byteOffset":245916,
			"target":34963
		},
		{
			"buffer":0,
			"byteLength":384,
			"byteOffset":246008,
			"target":34962
		},
		{
			"buffer":0,
			"byteLength":384,
			"byteOffset":246392,
			"target":34962
		},
		{
			"buffer":0,
			"byteLength":256,
			"byteOffset":246776,
			"target":34962
		},
		{
			"buffer":0,
			"byteLength":252,
			"byteOffset":247032,
			"target":34963
		},
		{
			"buffer":0,
			"byteLength":2544,
			"byteOffset":247284,
			"target":34962
		},
		{
			"buffer":0,
			"byteLength":2544,
			"byteOffset":249828,
			"target":34962
		},
		{
			"buffer":0,
			"byteLength":1696,
			"byteOffset":252372,
			"target":34962
		},
		{
			"buffer":0,
			"byteLength":2520,
			"byteOffset":254068,
			"target":34963
		},
		{
			"buffer":0,
			"byteLength":2316,
			"byteOffset":256588,
			"target":34962
		},
		{
			"buffer":0,
			"byteLength":2316,
			"byteOffset":258904,
			"target":34962
		},
		{
			"buffer":0,
			"byteLength":1544,
			"byteOffset":261220,
			"target":34962
		},
		{
			"buffer":0,
			"byteLength":1008,
			"byteOffset":262764,
			"target":34963
		},
		{
			"buffer":0,
			"byteLength":2304,
			"byteOffset":263772,
			"target":34962
		},
		{
			"buffer":0,
			"byteLength":2304,
			"byteOffset":266076,
			"target":34962
		},
		{
			"buffer":0,
			"byteLength":1536,
			"byteOffset":268380,
			"target":34962
		},
		{
			"buffer":0,
			"byteLength":744,
			"byteOffset":269916,
			"target":34963
		},
		{
			"buffer":0,
			"byteLength":912,
			"byteOffset":270660,
			"target":34962
		},
		{
			"buffer":0,
			"byteLength":912,
			"byteOffset":271572,
			"target":34962
		},
		{
			"buffer":0,
			"byteLength":608,
			"byteOffset":272484,
			"target":34962
		},
		{
			"buffer":0,
			"byteLength":408,
			"byteOffset":273092,
			"target":34963
		},
		{
			"buffer":0,
			"byteLength":1800,
			"byteOffset":273500,
			"target":34962
		},
		{
			"buffer":0,
			"byteLength":1800,
			"byteOffset":275300,
			"target":34962
		},
		{
			"buffer":0,
			"byteLength":1200,
			"byteOffset":277100,
			"target":34962
		},
		{
			"buffer":0,
			"byteLength":1380,
			"byteOffset":278300,
			"target":34963
		},
		{
			"buffer":0,
			"byteLength":48,
			"byteOffset":279680,
			"target":34962
		},
		{
			"buffer":0,
			"byteLength":48,
			"byteOffset":279728,
			"target":34962
		},
		{
			"buffer":0,
			"byteLength":32,
			"byteOffset":279776,
			"target":34962
		},
		{
			"buffer":0,
			"byteLength":12,
			"byteOffset":279808,
			"target":34963
		},
		{
			"buffer":0,
			"byteLength":768,
			"byteOffset":279820,
			"target":34962
		},
		{
			"buffer":0,
			"byteLength":768,
			"byteOffset":280588,
			"target":34962
		},
		{
			"buffer":0,
			"byteLength":512,
			"byteOffset":281356,
			"target":34962
		},
		{
			"buffer":0,
			"byteLength":252,
			"byteOffset":281868,
			"target":34963
		},
		{
			"buffer":0,
			"byteLength":1908,
			"byteOffset":282120,
			"target":34962
		},
		{
			"buffer":0,
			"byteLength":1908,
			"byteOffset":284028,
			"target":34962
		},
		{
			"buffer":0,
			"byteLength":1272,
			"byteOffset":285936,
			"target":34962
		},
		{
			"buffer":0,
			"byteLength":876,
			"byteOffset":287208,
			"target":34963
		},
		{
			"buffer":0,
			"byteLength":4692,
			"byteOffset":288084,
			"target":34962
		},
		{
			"buffer":0,
			"byteLength":4692,
			"byteOffset":292776,
			"target":34962
		},
		{
			"buffer":0,
			"byteLength":3128,
			"byteOffset":297468,
			"target":34962
		},
		{
			"buffer":0,
			"byteLength":2820,
			"byteOffset":300596,
			"target":34963
		},
		{
			"buffer":0,
			"byteLength":360,
			"byteOffset":303416,
			"target":34962
		},
		{
			"buffer":0,
			"byteLength":360,
			"byteOffset":303776,
			"target":34962
		},
		{
			"buffer":0,
			"byteLength":240,
			"byteOffset":304136,
			"target":34962
		},
		{
			"buffer":0,
			"byteLength":156,
			"byteOffset":304376,
			"target":34963
		},
		{
			"buffer":0,
			"byteLength":120,
			"byteOffset":304532,
			"target":34962
		},
		{
			"buffer":0,
			"byteLength":120,
			"byteOffset":304652,
			"target":34962
		},
		{
			"buffer":0,
			"byteLength":80,
			"byteOffset":304772,
			"target":34962
		},
		{
			"buffer":0,
			"byteLength":36,
			"byteOffset":304852,
			"target":34963
		},
		{
			"buffer":0,
			"byteLength":516,
			"byteOffset":304888,
			"target":34962
		},
		{
			"buffer":0,
			"byteLength":516,
			"byteOffset":305404,
			"target":34962
		},
		{
			"buffer":0,
			"byteLength":344,
			"byteOffset":305920,
			"target":34962
		},
		{
			"buffer":0,
			"byteLength":198,
			"byteOffset":306264,
			"target":34963
		},
		{
			"buffer":0,
			"byteLength":420,
			"byteOffset":306464,
			"target":34962
		},
		{
			"buffer":0,
			"byteLength":420,
			"byteOffset":306884,
			"target":34962
		},
		{
			"buffer":0,
			"byteLength":280,
			"byteOffset":307304,
			"target":34962
		},
		{
			"buffer":0,
			"byteLength":180,
			"byteOffset":307584,
			"target":34963
		},
		{
			"buffer":0,
			"byteLength":276,
			"byteOffset":307764,
			"target":34962
		},
		{
			"buffer":0,
			"byteLength":276,
			"byteOffset":308040,
			"target":34962
		},
		{
			"buffer":0,
			"byteLength":184,
			"byteOffset":308316,
			"target":34962
		},
		{
			"buffer":0,
			"byteLength":114,
			"byteOffset":308500,
			"target":34963
		},
		{
			"buffer":0,
			"byteLength":1176,
			"byteOffset":308616,
			"target":34962
		},
		{
			"buffer":0,
			"byteLength":1176,
			"byteOffset":309792,
			"target":34962
		},
		{
			"buffer":0,
			"byteLength":784,
			"byteOffset":310968,
			"target":34962
		},
		{
			"buffer":0,
			"byteLength":564,
			"byteOffset":311752,
			"target":34963
		}
	],
	"buffers":[
		{
			"byteLength":312316,
			"uri":"maroom.bin"
		}
	]
}
